<?xml version="1.0" encoding="utf-8"?>
<!-- Generator: Adobe Illustrator 19.0.0, SVG Export Plug-In . SVG Version: 6.00 Build 0)  -->
<!DOCTYPE svg PUBLIC "-//W3C//DTD SVG 1.1//EN" "http://www.w3.org/Graphics/SVG/1.1/DTD/svg11.dtd">
<svg version="1.1" id="Layer_1" xmlns="http://www.w3.org/2000/svg" xmlns:xlink="http://www.w3.org/1999/xlink" x="0px" y="0px"
	 viewBox="0 0 20 20" enable-background="new 0 0 20 20" xml:space="preserve">
<g id="XMLID_1_">
	<path fill="#0976BC" d="M17.1,2.9C15.2,1,12.7,0,10,0C7.3,0,4.8,1,2.9,2.9C1,4.8,0,7.3,0,10c0,2.7,1,5.2,2.9,7.1
		C4.8,19,7.3,20,10,20c2.7,0,5.2-1,7.1-2.9C19,15.2,20,12.7,20,10C20,7.3,19,4.8,17.1,2.9z M10,19c-5,0-9-4-9-9s4-9,9-9c5,0,9,4,9,9
		S15,19,10,19z"/>
	<path fill="#0976BC" d="M10.6,3c-0.3-0.3-0.9-0.3-1.2,0L3.9,7.5c0,0.2,0,0.3,0,0.7v0.5v4.4c0,0.3,0,0.7,0,1v0.8h0.9H5H15h0.3h0.8
		v-1.1h0V9.2c0-0.2,0-0.4,0-0.5h0V8.6V8.3V7.5L10.6,3z M4.8,7.5l4.9-4.1C9.8,3.3,9.9,3.3,10,3.3c0.1,0,0.2,0,0.3,0.1l4.9,4.1
		L4.8,7.5C4.8,7.5,4.8,7.5,4.8,7.5z M15,8.1l-3.9,2.3L10.6,10c-0.8-0.5-1.5,0-1.5,0l-0.4,0.4L5,8.1H15z M4.5,14.1c0-0.3,0-0.6,0-0.9
		V8.7V8.3l3.8,2.4L4.5,14.1z M4.8,14.4l4.5-4c0,0,0.5-0.3,1,0l4.9,4H4.8z M15.5,14l-4.1-3.3l4.1-2.4l0,0.3c0,0,0,0,0,0.7V14z"/>
</g>
</svg>
